<svg id="Calque_1" data-name="Calque 1" xmlns="http://www.w3.org/2000/svg" viewBox="0 0 1920 1080"><path d="M860,329v8a42.26,42.26,0,0,0-1.85,4.48q-28.6,100-57.15,200.09c-3.9,13.7-7.44,16.45-21.47,16.45q-132,0-263.94,0c-9.77,0-16.5,6.18-16.55,14.91s6.68,14.94,16.38,15.08h265c1.83,0,3.67-.09,5.49.08,6.18.57,10.67,3.67,13,9.44,4.09,10.09-3.24,20.26-14.73,20.46-7.31.12-14.62,0-21.93,0,23,5.14,39.35,25.35,37.65,47.11-1.89,24.12-19.43,41.44-43.38,42.81-21,1.19-41.72-15.2-45.49-35.9-2.29-12.56,0-24.24,7.26-34.71S735.59,621,747.8,618.22H550c28,5.85,40.57,28.24,38.61,48.16-2.37,24.21-21.1,41.4-44.45,41.58-22.82.17-41.67-16.69-44.7-40.21-2.48-19.2,8.82-43.13,37.45-49.58-7.47-.19-14.94,0-22.4-.23-19.19-.63-33.69-9.28-41.51-26.93-7.35-16.61-5.09-32.75,6.71-46.73,4.39-5.2,10.42-9,16.1-13.82C478,450.19,460,369.19,442,288h-5.82c-22.67,0-45.33-.29-68,.14-9.28.17-16.17-2.46-20.15-11.14v-8c3.15-6,7.21-10.92,14.66-10.94,30.33-.08,60.67-.14,91,0,7.95,0,13.21,4.78,15.23,12.67.82,3.22,1.42,6.5,2.14,9.75,2.78,12.44,5.57,24.89,8.39,37.49h6.43q177,0,354-.13C849.13,317.82,856,320.32,860,329Z"/></svg>